<?xml version="1.0" encoding="UTF-8"?>
<!DOCTYPE svg PUBLIC "-//W3C//DTD SVG 1.1//EN" "http://www.w3.org/Graphics/SVG/1.1/DTD/svg11.dtd">
<svg version="1.2" width="211.93mm" height="211.93mm" viewBox="0 0 21193 21193" preserveAspectRatio="xMidYMid" fill-rule="evenodd" stroke-width="28.222" stroke-linejoin="round" xmlns="http://www.w3.org/2000/svg" xmlns:ooo="http://xml.openoffice.org/svg/export" xmlns:xlink="http://www.w3.org/1999/xlink" xmlns:presentation="http://sun.com/xmlns/staroffice/presentation" xmlns:smil="http://www.w3.org/2001/SMIL20/" xmlns:anim="urn:oasis:names:tc:opendocument:xmlns:animation:1.0" xmlns:svg="urn:oasis:names:tc:opendocument:xmlns:svg-compatible:1.0" xml:space="preserve">
 <defs class="ClipPathGroup">
  <clipPath id="presentation_clip_path" clipPathUnits="userSpaceOnUse">
   <rect x="0" y="0" width="21193" height="21193"/>
  </clipPath>
  <clipPath id="presentation_clip_path_shrink" clipPathUnits="userSpaceOnUse">
   <rect x="21" y="21" width="21151" height="21151"/>
  </clipPath>
 </defs>
 <defs class="TextShapeIndex">
  <g ooo:slide="id1" ooo:id-list="id3"/>
 </defs>
 <defs class="EmbeddedBulletChars">
  <g id="bullet-char-template-57356" transform="scale(0.00048828125,-0.00048828125)">
   <path d="M 580,1141 L 1163,571 580,0 -4,571 580,1141 Z"/>
  </g>
  <g id="bullet-char-template-57354" transform="scale(0.00048828125,-0.00048828125)">
   <path d="M 8,1128 L 1137,1128 1137,0 8,0 8,1128 Z"/>
  </g>
  <g id="bullet-char-template-10146" transform="scale(0.00048828125,-0.00048828125)">
   <path d="M 174,0 L 602,739 174,1481 1456,739 174,0 Z M 1358,739 L 309,1346 659,739 1358,739 Z"/>
  </g>
  <g id="bullet-char-template-10132" transform="scale(0.00048828125,-0.00048828125)">
   <path d="M 2015,739 L 1276,0 717,0 1260,543 174,543 174,936 1260,936 717,1481 1274,1481 2015,739 Z"/>
  </g>
  <g id="bullet-char-template-10007" transform="scale(0.00048828125,-0.00048828125)">
   <path d="M 0,-2 C -7,14 -16,27 -25,37 L 356,567 C 262,823 215,952 215,954 215,979 228,992 255,992 264,992 276,990 289,987 310,991 331,999 354,1012 L 381,999 492,748 772,1049 836,1024 860,1049 C 881,1039 901,1025 922,1006 886,937 835,863 770,784 769,783 710,716 594,584 L 774,223 C 774,196 753,168 711,139 L 727,119 C 717,90 699,76 672,76 641,76 570,178 457,381 L 164,-76 C 142,-110 111,-127 72,-127 30,-127 9,-110 8,-76 1,-67 -2,-52 -2,-32 -2,-23 -1,-13 0,-2 Z"/>
  </g>
  <g id="bullet-char-template-10004" transform="scale(0.00048828125,-0.00048828125)">
   <path d="M 285,-33 C 182,-33 111,30 74,156 52,228 41,333 41,471 41,549 55,616 82,672 116,743 169,778 240,778 293,778 328,747 346,684 L 369,508 C 377,444 397,411 428,410 L 1163,1116 C 1174,1127 1196,1133 1229,1133 1271,1133 1292,1118 1292,1087 L 1292,965 C 1292,929 1282,901 1262,881 L 442,47 C 390,-6 338,-33 285,-33 Z"/>
  </g>
  <g id="bullet-char-template-9679" transform="scale(0.00048828125,-0.00048828125)">
   <path d="M 813,0 C 632,0 489,54 383,161 276,268 223,411 223,592 223,773 276,916 383,1023 489,1130 632,1184 813,1184 992,1184 1136,1130 1245,1023 1353,916 1407,772 1407,592 1407,412 1353,268 1245,161 1136,54 992,0 813,0 Z"/>
  </g>
  <g id="bullet-char-template-8226" transform="scale(0.00048828125,-0.00048828125)">
   <path d="M 346,457 C 273,457 209,483 155,535 101,586 74,649 74,723 74,796 101,859 155,911 209,963 273,989 346,989 419,989 480,963 531,910 582,859 608,796 608,723 608,648 583,586 532,535 482,483 420,457 346,457 Z"/>
  </g>
  <g id="bullet-char-template-8211" transform="scale(0.00048828125,-0.00048828125)">
   <path d="M -4,459 L 1135,459 1135,606 -4,606 -4,459 Z"/>
  </g>
  <g id="bullet-char-template-61548" transform="scale(0.00048828125,-0.00048828125)">
   <path d="M 173,740 C 173,903 231,1043 346,1159 462,1274 601,1332 765,1332 928,1332 1067,1274 1183,1159 1299,1043 1357,903 1357,740 1357,577 1299,437 1183,322 1067,206 928,148 765,148 601,148 462,206 346,322 231,437 173,577 173,740 Z"/>
  </g>
 </defs>
 <g>
  <g id="id2" class="Master_Slide">
   <g id="bg-id2" class="Background"/>
   <g id="bo-id2" class="BackgroundObjects"/>
  </g>
 </g>
 <g class="SlideGroup">
  <g>
   <g id="container-id1">
    <g id="id1" class="Slide" clip-path="url(#presentation_clip_path)">
     <g class="Page">
      <g class="Graphic">
       <g id="id3">
        <rect class="BoundingBox" stroke="none" fill="none" x="0" y="0" width="21193" height="21193"/>
        <path fill="rgb(255,255,255)" stroke="none" d="M 11112,10146 C 11085,10146 7950,10054 7395,14062 7395,14035 4061,13744 3836,16258 3863,16271 3572,19499 7778,19221 L 16985,19237 C 16985,19237 20703,17681 19195,14686 17686,11691 15094,12964 15094,12964 15094,12964 13784,9961 11112,10146 Z "/>
        <path fill="rgb(255,188,0)" stroke="none" d="M 15308,8554 C 15308,9543 15104,10488 14737,11342 14610,11638 14461,11924 14297,12199 13694,11181 12583,10495 11318,10495 9450,10495 7926,11982 7860,13832 7858,13874 7858,13914 7858,13956 L 7858,13967 C 7858,14009 7858,14051 7860,14094 7874,14395 7572,14612 7292,14512 7254,14498 7223,14485 7186,14475 L 7180,14475 C 7170,14469 7159,14469 7146,14464 7133,14459 7120,14459 7109,14453 7083,14448 7061,14440 7035,14435 6887,14401 6733,14382 6577,14377 6022,14366 5508,14559 5109,14887 4842,14755 4585,14607 4339,14443 2431,13181 1175,11017 1175,8554 1175,4651 4339,1490 8241,1490 12144,1490 15308,4651 15308,8554 L 15308,8554 Z "/>
        <path fill="rgb(109,109,109)" stroke="none" d="M 15371,12506 C 15099,12578 14837,12681 14594,12813 14588,12816 14588,12821 14588,12826 14594,12842 14599,12861 14604,12877 14610,12887 14610,12898 14615,12908 14620,12924 14625,12945 14631,12961 14731,13295 15086,13485 15419,13374 15432,13369 15446,13366 15456,13361 15477,13355 15498,13348 15517,13342 15538,13337 15557,13329 15578,13326 15768,13276 15967,13244 16170,13234 17858,13152 19253,14580 19126,16266 19025,17583 18020,18649 16734,18843 16596,18864 16454,18874 16311,18874 L 13998,18874 C 13988,18874 13982,18888 13993,18893 14602,19390 15371,19695 16210,19718 16245,19721 16279,19721 16311,19721 16454,19721 16594,19713 16734,19697 18565,19486 19988,17922 19980,16033 19972,14017 18313,12377 16295,12384 15975,12387 15665,12429 15371,12506 Z M 6956,18877 L 6532,18877 C 6389,18877 6246,18864 6109,18837 5053,18634 4257,17692 4283,16570 4299,15893 4619,15292 5109,14893 5508,14565 6024,14371 6577,14382 6733,14387 6887,14406 7035,14440 7061,14445 7083,14453 7109,14459 7122,14461 7135,14464 7146,14469 7157,14472 7167,14475 7180,14480 L 7186,14480 C 7522,14583 7860,14326 7858,13972 L 7858,13961 C 7858,13919 7858,13877 7860,13837 7601,13713 7321,13625 7030,13578 6868,13551 6704,13538 6535,13538 5680,13538 4902,13887 4342,14451 3786,15012 3439,15782 3439,16633 3439,18194 4604,19493 6112,19697 6220,19713 6328,19721 6437,19724 L 6442,19724 C 6471,19726 6503,19726 6532,19726 6564,19726 6596,19726 6627,19724 7411,19700 8125,19382 8657,18880 L 6956,18880 6956,18877 Z "/>
        <path fill="rgb(109,109,109)" stroke="none" d="M 14737,11345 C 13948,10316 12710,9651 11316,9651 9069,9651 7220,11379 7024,13572 7014,13699 7008,13829 7008,13959 7008,14120 7016,14281 7035,14438 7061,14443 7083,14451 7109,14456 7122,14459 7135,14461 7146,14467 7157,14469 7167,14472 7180,14477 L 7186,14477 C 7223,14488 7254,14501 7292,14514 7575,14615 7874,14398 7860,14096 7858,14054 7858,14012 7858,13969 L 7858,13959 C 7858,13916 7858,13874 7860,13834 7926,11985 9453,10498 11318,10498 12586,10498 13694,11181 14297,12202 14411,12398 14509,12601 14586,12818 14586,12821 14588,12824 14588,12826 14594,12842 14599,12861 14604,12877 14610,12887 14610,12898 14615,12908 14617,12914 14620,12919 14620,12924 14731,13276 15104,13477 15456,13363 15477,13358 15498,13350 15517,13345 15538,13340 15557,13332 15578,13329 15536,13043 15467,12768 15371,12506 15218,12086 15006,11694 14737,11345 Z M 15887,18877 L 6956,18877 C 6908,18885 6866,18888 6818,18888 6725,18888 6630,18877 6532,18877 6389,18877 6246,18864 6109,18837 L 6434,19721 16329,19721 16737,18845 C 16596,18866 16456,18877 16311,18877 16168,18877 16025,18898 15887,18877 Z "/>
       </g>
      </g>
     </g>
    </g>
   </g>
  </g>
 </g>
</svg>